<?xml version="1.0" encoding="UTF-8" standalone="no"?>
<svg
   xmlns:dc="http://purl.org/dc/elements/1.1/"
   xmlns:cc="http://creativecommons.org/ns#"
   xmlns:rdf="http://www.w3.org/1999/02/22-rdf-syntax-ns#"
   xmlns:svg="http://www.w3.org/2000/svg"
   xmlns="http://www.w3.org/2000/svg"
   xmlns:sodipodi="http://sodipodi.sourceforge.net/DTD/sodipodi-0.dtd"
   xmlns:inkscape="http://www.inkscape.org/namespaces/inkscape"
   version="1.0"
   width="1127.0874pt"
   height="1144.6281pt"
   viewBox="0 0 1127.0874 1144.6281"
   preserveAspectRatio="xMidYMid meet"
   id="svg16"
   sodipodi:docname="icon.svg"
   inkscape:version="0.92.3 (2405546, 2018-03-11)"
   inkscape:export-filename="/home/gue/Desktop/ActivityMapLogo.svg.png"
   inkscape:export-xdpi="4.5599999"
   inkscape:export-ydpi="4.5599999">
  <defs
     id="defs20" />
  <sodipodi:namedview
     pagecolor="#ffffff"
     bordercolor="#666666"
     borderopacity="1"
     objecttolerance="10"
     gridtolerance="10"
     guidetolerance="10"
     inkscape:pageopacity="0"
     inkscape:pageshadow="2"
     inkscape:window-width="1920"
     inkscape:window-height="996"
     id="namedview18"
     showgrid="false"
     inkscape:zoom="0.32"
     inkscape:cx="-187.99212"
     inkscape:cy="485.6232"
     inkscape:window-x="0"
     inkscape:window-y="28"
     inkscape:window-maximized="1"
     inkscape:current-layer="g4684"
     fit-margin-top="0"
     fit-margin-left="0"
     fit-margin-right="0"
     fit-margin-bottom="0" />
  <metadata
     id="metadata2">
Created by potrace 1.15, written by Peter Selinger 2001-2017
<rdf:RDF>
  <cc:Work
     rdf:about="">
    <dc:format>image/svg+xml</dc:format>
    <dc:type
       rdf:resource="http://purl.org/dc/dcmitype/StillImage" />
    <dc:title></dc:title>
  </cc:Work>
</rdf:RDF>
</metadata>
  <g
     transform="matrix(0.1,0,0,-0.1,-89.395793,1209.2128)"
     id="g14"
     style="fill:#000000;stroke:none">
    <g
       id="g4627">
      <g
         id="g4646">
        <g
           id="g4665">
          <g
             id="g4684"
             transform="rotate(-18.737668,6634.0936,6360.8306)">
            <ellipse
               style="opacity:1;fill:none;fill-opacity:1;stroke:#000000;stroke-width:864.01501465;stroke-miterlimit:4;stroke-dasharray:none;stroke-dashoffset:0;stroke-opacity:0.29743593"
               id="path29"
               cx="8219.0576"
               cy="-3848.1699"
               transform="matrix(0.94699929,0.32123565,0.32123565,-0.94699929,0,0)"
               rx="3621.0938"
               ry="3691.4062" />
            <path
               d="m 6493,11337 c -23,-111 -90,-431 -148,-712 -58,-280 -153,-735 -210,-1010 -57,-275 -163,-783 -235,-1130 -155,-749 -167,-806 -172,-810 -1,-1 -329,211 -727,472 -647,424 -725,473 -739,460 -13,-14 35,-92 460,-739 261,-398 475,-724 474,-725 -1,-2 -226,-49 -1211,-253 -346,-72 -823,-171 -1060,-220 -236,-49 -605,-126 -820,-170 -214,-44 -475,-99 -578,-120 -103,-22 -190,-40 -192,-40 -3,0 -5,-16 -5,-35 0,-19 2,-35 5,-35 3,0 100,-20 217,-45 117,-24 386,-80 598,-124 600,-124 1138,-236 1450,-301 1089,-227 1542,-320 1553,-320 50,-1 42,-14 -437,-745 -421,-641 -476,-729 -463,-742 13,-13 101,42 742,462 400,262 728,475 729,473 1,-2 26,-118 55,-258 28,-140 99,-480 156,-755 57,-275 140,-673 184,-885 44,-212 116,-559 160,-772 45,-214 117,-562 161,-775 44,-214 83,-396 86,-405 4,-12 16,-18 38,-18 h 32 l 47,223 c 25,122 128,614 227,1092 273,1316 290,1397 415,1994 63,305 117,556 118,558 2,2 326,-209 721,-467 395,-259 722,-471 728,-473 5,-1 14,5 20,13 8,12 -92,171 -462,734 -259,395 -468,722 -463,726 4,4 175,41 378,83 204,42 609,126 900,186 292,61 814,169 1160,241 347,72 807,167 1023,212 l 393,82 -3,35 -3,34 -255,53 c -140,29 -538,112 -885,184 -751,156 -1504,312 -2200,457 -280,58 -512,107 -513,108 -2,2 211,331 473,730 426,649 476,729 462,742 -13,14 -92,-35 -738,-459 -583,-382 -725,-472 -731,-459 -4,9 -33,138 -63,286 -31,149 -103,495 -160,770 -57,275 -140,676 -185,890 -45,215 -128,615 -185,890 -57,275 -128,616 -157,757 l -53,258 h -35 -35 z m 37,-2560 -5,-2377 -409,409 -409,409 12,48 c 6,27 58,276 115,554 96,464 184,884 471,2265 57,275 129,624 160,775 57,276 64,306 68,299 1,-2 0,-1074 -3,-2382 z m 1561,-922 c -328,-326 -596,-593 -597,-592 -1,1 -18,83 -39,181 -30,146 -34,181 -23,187 7,5 290,191 628,413 338,223 617,405 620,405 3,1 -262,-267 -589,-594 z M 5600,7230 c 0,-5 -353,-81 -356,-77 -1,1 -189,288 -418,637 l -417,635 595,-595 c 328,-327 596,-597 596,-600 z m 2365,-174 c 429,-89 656,-136 1983,-411 1304,-271 1477,-307 1481,-311 2,-2 -1073,-4 -2390,-4 H 6645 l 415,415 c 265,265 420,413 430,411 8,-3 222,-48 475,-100 z m -1893,-1199 -413,-413 -392,82 c -566,118 -2273,472 -3102,644 -236,49 -439,91 -450,93 -11,3 1058,5 2375,6 l 2395,1 z m 1265,-889 c -47,-227 -133,-640 -191,-918 -58,-278 -175,-842 -261,-1255 -86,-412 -182,-878 -215,-1035 -32,-157 -61,-294 -63,-305 -3,-11 -5,1053 -6,2365 l -1,2385 412,-412 411,-411 z m 959,-140 c 225,-341 413,-628 418,-637 4,-9 -262,254 -593,584 -331,330 -596,601 -589,603 68,15 336,70 344,71 7,1 196,-279 420,-621 z m -2616,314 c 18,-89 31,-164 29,-166 -5,-5 -949,-624 -1134,-743 l -130,-85 595,596 c 459,460 596,592 601,578 3,-9 21,-90 39,-180 z"
               id="path6"
               inkscape:connector-curvature="0"
               style="fill:#110000;fill-opacity:1;stroke:#500000;stroke-opacity:1" />
            <text
               xml:space="preserve"
               style="font-style:normal;font-variant:normal;font-weight:normal;font-stretch:normal;font-size:800px;line-height:1.25;font-family:'Blackadder ITC';-inkscape-font-specification:'Blackadder ITC, Normal';font-variant-ligatures:normal;font-variant-caps:normal;font-variant-numeric:normal;font-feature-settings:normal;text-align:start;letter-spacing:0px;word-spacing:0px;writing-mode:lr-tb;text-anchor:start;fill:#cf0000;fill-opacity:1;stroke:none;stroke-width:16.36500931"
               x="6335.3418"
               y="-11730.468"
               id="text4532"
               transform="scale(1,-1)"><tspan
                 sodipodi:role="line"
                 id="tspan4530"
                 x="6335.3418"
                 y="-11730.468"
                 style="font-style:normal;font-variant:normal;font-weight:normal;font-stretch:normal;font-size:800px;font-family:'Blackadder ITC';-inkscape-font-specification:'Blackadder ITC, Normal';font-variant-ligatures:normal;font-variant-caps:normal;font-variant-numeric:normal;font-feature-settings:normal;text-align:start;writing-mode:lr-tb;text-anchor:start;fill:#cf0000;fill-opacity:1;stroke-width:16.36500931">A</tspan></text>
            <text
               xml:space="preserve"
               style="font-style:normal;font-variant:normal;font-weight:normal;font-stretch:normal;font-size:654.60040283px;line-height:1.25;font-family:'Blackadder ITC';-inkscape-font-specification:'Blackadder ITC';letter-spacing:0px;word-spacing:0px;fill:#000000;fill-opacity:1;stroke:none;stroke-width:16.36500931"
               x="8998.916"
               y="-8574.5361"
               id="text4532-9"
               transform="scale(1,-1)"><tspan
                 sodipodi:role="line"
                 id="tspan4530-1"
                 x="8998.916"
                 y="-8574.5361"
                 style="font-style:normal;font-variant:normal;font-weight:normal;font-stretch:normal;font-family:'Blackadder ITC';-inkscape-font-specification:'Blackadder ITC';stroke-width:16.36500931">C</tspan></text>
            <text
               xml:space="preserve"
               style="font-style:normal;font-variant:normal;font-weight:normal;font-stretch:normal;font-size:800px;line-height:1.25;font-family:'Blackadder ITC';-inkscape-font-specification:'Blackadder ITC, Normal';font-variant-ligatures:normal;font-variant-caps:normal;font-variant-numeric:normal;font-feature-settings:normal;text-align:start;letter-spacing:0px;word-spacing:0px;writing-mode:lr-tb;text-anchor:start;fill:#000000;fill-opacity:1;stroke:none;stroke-width:16.36500931"
               x="11905.166"
               y="-6008.1299"
               id="text4532-3"
               transform="scale(1,-1)"><tspan
                 sodipodi:role="line"
                 id="tspan4530-9"
                 x="11905.166"
                 y="-6008.1299"
                 style="font-style:normal;font-variant:normal;font-weight:normal;font-stretch:normal;font-size:800px;font-family:'Blackadder ITC';-inkscape-font-specification:'Blackadder ITC, Normal';font-variant-ligatures:normal;font-variant-caps:normal;font-variant-numeric:normal;font-feature-settings:normal;text-align:start;writing-mode:lr-tb;text-anchor:start;stroke-width:16.36500931">T</tspan></text>
            <text
               xml:space="preserve"
               style="font-style:normal;font-variant:normal;font-weight:normal;font-stretch:normal;font-size:654.60040283px;line-height:1.25;font-family:'Blackadder ITC';-inkscape-font-specification:'Blackadder ITC';letter-spacing:0px;word-spacing:0px;fill:#000000;fill-opacity:1;stroke:none;stroke-width:16.36500931"
               x="9092.666"
               y="-3664.3799"
               id="text4532-1"
               transform="scale(1,-1)"><tspan
                 sodipodi:role="line"
                 id="tspan4530-3"
                 x="9092.666"
                 y="-3664.3799"
                 style="font-style:normal;font-variant:normal;font-weight:normal;font-stretch:normal;font-family:'Blackadder ITC';-inkscape-font-specification:'Blackadder ITC';stroke-width:16.36500931">I</tspan></text>
            <text
               xml:space="preserve"
               style="font-style:normal;font-variant:normal;font-weight:normal;font-stretch:normal;font-size:800px;line-height:1.25;font-family:'Blackadder ITC';-inkscape-font-specification:'Blackadder ITC, Normal';font-variant-ligatures:normal;font-variant-caps:normal;font-variant-numeric:normal;font-feature-settings:normal;text-align:start;letter-spacing:0px;word-spacing:0px;writing-mode:lr-tb;text-anchor:start;fill:#000000;fill-opacity:1;stroke:none;stroke-width:16.36500931"
               x="6330.9897"
               y="-406.56726"
               id="text4532-1-3"
               transform="scale(1,-1)"><tspan
                 sodipodi:role="line"
                 id="tspan4530-3-5"
                 x="6330.9897"
                 y="-406.56726"
                 style="font-style:normal;font-variant:normal;font-weight:normal;font-stretch:normal;font-size:800px;font-family:'Blackadder ITC';-inkscape-font-specification:'Blackadder ITC, Normal';font-variant-ligatures:normal;font-variant-caps:normal;font-variant-numeric:normal;font-feature-settings:normal;text-align:start;writing-mode:lr-tb;text-anchor:start;stroke-width:16.36500931">V</tspan></text>
            <text
               xml:space="preserve"
               style="font-style:normal;font-weight:normal;font-size:654.60040283px;line-height:1.25;font-family:sans-serif;letter-spacing:0px;word-spacing:0px;fill:#000000;fill-opacity:1;stroke:none;stroke-width:16.36500931"
               x="3799.74"
               y="-3512.0361"
               id="text4532-1-7"
               transform="scale(1,-1)"><tspan
                 sodipodi:role="line"
                 id="tspan4530-3-8"
                 x="3799.74"
                 y="-3512.0361"
                 style="font-style:normal;font-variant:normal;font-weight:normal;font-stretch:normal;font-family:'Blackadder ITC';-inkscape-font-specification:'Blackadder ITC';stroke-width:16.36500931">I</tspan></text>
            <text
               xml:space="preserve"
               style="font-style:normal;font-weight:normal;font-size:654.60040283px;line-height:1.25;font-family:sans-serif;letter-spacing:0px;word-spacing:0px;fill:#000000;fill-opacity:1;stroke:none;stroke-width:16.36500931"
               x="670.83362"
               y="-6078.4424"
               id="text4532-1-36"
               transform="scale(1,-1)"><tspan
                 sodipodi:role="line"
                 id="tspan4530-3-2"
                 x="670.83362"
                 y="-6078.4424"
                 style="font-style:normal;font-variant:normal;font-weight:normal;font-stretch:normal;font-size:800px;font-family:'Blackadder ITC';-inkscape-font-specification:'Blackadder ITC, Normal';font-variant-ligatures:normal;font-variant-caps:normal;font-variant-numeric:normal;font-feature-settings:normal;text-align:start;writing-mode:lr-tb;text-anchor:start;stroke-width:16.36500931">T</tspan></text>
            <text
               xml:space="preserve"
               style="font-style:normal;font-weight:normal;font-size:654.60040283px;line-height:1.25;font-family:sans-serif;letter-spacing:0px;word-spacing:0px;fill:#000000;fill-opacity:1;stroke:none;stroke-width:16.36500931"
               x="3752.865"
               y="-8609.6924"
               id="text4532-1-8"
               transform="scale(1,-1)"><tspan
                 sodipodi:role="line"
                 id="tspan4530-3-6"
                 x="3752.865"
                 y="-8609.6924"
                 style="font-style:normal;font-variant:normal;font-weight:normal;font-stretch:normal;font-family:'Blackadder ITC';-inkscape-font-specification:'Blackadder ITC';stroke-width:16.36500931">Y</tspan></text>
            <path
               style="fill:#cf0000;fill-opacity:1;stroke:#000000;stroke-width:7.5px;stroke-linecap:butt;stroke-linejoin:miter;stroke-opacity:1"
               d="M 6600.0001,6204.9998 6604.9998,11540 7490,7155.9998 l -889.9999,-951"
               id="path4686"
               inkscape:connector-curvature="0" />
          </g>
        </g>
      </g>
    </g>
  </g>
</svg>
